<?xml version="1.0" encoding="utf-8"?>
<!-- Svg Vector Icons : http://www.onlinewebfonts.com/icon -->
<!DOCTYPE svg PUBLIC "-//W3C//DTD SVG 1.1//EN" "http://www.w3.org/Graphics/SVG/1.1/DTD/svg11.dtd">
<svg version="1.1" xmlns="http://www.w3.org/2000/svg" xmlns:xlink="http://www.w3.org/1999/xlink" x="0px" y="0px" viewBox="0 0 1000 1000" enable-background="new 0 0 1000 1000" xml:space="preserve">
<metadata> Svg Vector Icons : http://www.onlinewebfonts.com/icon </metadata>
<g><g><path d="M338.2,238.6h75v330.7h-75V238.6z M579.1,236.1c-45.6,0-78,3-101.1,6.9v326.2h74.1V451c6.9,1,15.7,1.5,25.5,1.5c44.1,0,81.9-10.8,107.4-34.9c19.6-18.7,30.4-46.1,30.4-78.5c0-32.4-14.3-59.8-35.3-76.5C658.1,245,625.2,236.1,579.1,236.1z M577.1,395c-10.8,0-18.6-0.5-25-2v-97.5c5.4-1.5,15.7-3,31-3c37.2,0,58.4,18.2,58.4,48.5C641.4,374.9,616.9,395,577.1,395z M500,10C277.5,10,97.2,190.3,97.2,412.8S500,990,500,990s402.8-354.7,402.8-577.2S722.5,10,500,10z M501,657.7c-147.7,0-267.4-119.8-267.4-267.5c0-147.7,119.8-267.4,267.4-267.4c147.8,0,267.5,119.8,267.5,267.4C768.5,537.9,648.7,657.7,501,657.7z"/></g><g></g><g></g><g></g><g></g><g></g><g></g><g></g><g></g><g></g><g></g><g></g><g></g><g></g><g></g><g></g></g>
</svg>